<?xml version="1.0" encoding="UTF-8"?><svg id="Ebene_1" xmlns="http://www.w3.org/2000/svg" viewBox="0 0 738.54 325.51"><defs><style>.cls-1{fill:#1d85c7;}</style></defs><g><path class="cls-1" d="m274.22,258.48l-87.71-157.33c-.3-.6-.55-1.11-.8-1.59-2.31-4.61-3.7-7.39-3.7-13.82,0-.21,0-.42-.01-.63,0-.25-.02-.49-.02-.74v-15.51s0-3.42,0-6.82v-4.68s.02-1.55.02-1.55c0-.74,0-1.66,1.06-1.9,12.54-2.84,21.47-14.23,21.25-27.09-.26-14.78-12.81-26.8-27.98-26.8h-75.77c-8.52,0-16.4,3.89-21.62,10.66-5.22,6.77-6.92,15.51-4.69,24,3.09,11.72,13.92,19.9,26.34,19.9h.08c1.58,0,3.07-.76,4-2.04.95-1.3,1.19-2.97.66-4.58-.62-1.91-2.55-3.24-4.69-3.24h-.08c-5.11,0-9.94-2.24-13.26-6.14-3.31-3.9-4.74-9.06-3.91-14.16,1.35-8.27,8.93-14.51,17.64-14.51h75.5c8.94,0,16.57,6.43,17.75,14.95.69,5.03-.8,10.09-4.11,13.88-3.31,3.8-8.1,5.98-13.13,5.98-2.7,0-4.93,2.33-4.93,5.09v33.87c0,11.34.98,13.53,5.59,21.98l87.83,157.55c1.78,3.55,2.49,7.35,2.13,11.35-.95,10.53-10.25,18.78-21.17,18.78h-48.29c-1.48,0-2.87.66-3.81,1.8-.96,1.16-1.32,2.63-1.02,4.14.44,2.27,2.59,3.93,5.11,3.93h48.52c16.9,0,30.64-13.75,30.64-30.64,0-4.82-1.15-9.62-3.32-13.89l-.09-.17Z"/><path class="cls-1" d="m208.26,213.71c0-18.33-7.11-35.64-20.01-48.74-12.89-13.08-30.06-20.44-48.36-20.73-.14,0-.23,0-.32,0h-.79c-.09,0-.18,0-.27,0-18.35.29-35.52,7.65-48.41,20.73-12.9,13.09-20.01,30.4-20.01,48.74,0,13.97,4.65,27.95,13.81,41.57,7.75,11.52,11.22,20.07,11.24,27.73.01,3.38-.84,5.95-2.53,7.65-2.18,2.19-5.44,2.65-7.78,2.65H31.14c-11.4,0-20.93-9.03-21.26-20.13-.1-3.51.63-6.86,2.19-9.95L104.78,96.71c.64-1.15.8-2.48.43-3.75-.36-1.27-1.19-2.32-2.35-2.96-.73-.41-1.56-.62-2.4-.62-1.79,0-3.45.97-4.32,2.54L3.41,258.49c-.03.05-.06.11-.09.16-2.17,4.27-3.32,9.07-3.32,13.89,0,16.9,13.75,30.64,30.64,30.64h54.2c6.04,0,11.15-1.92,14.77-5.55,2.48-2.49,5.44-7.05,5.41-14.65-.03-9.73-4.02-19.98-12.92-33.21-8.05-11.96-12.13-24.09-12.13-36.06,0-32.65,26.56-59.38,59.2-59.6,32.66.22,59.22,26.96,59.22,59.6,0,11.97-4.08,24.1-12.13,36.06-5.55,8.25-8.91,14.62-10.88,20.67-1.29,3.74-4.8,6.23-8.74,6.23-5.17,0-9.38-4.13-9.38-9.22,0-.15,0-.3-.02-.45,0-.07-.69-7.55-.7-12.12,0-1.26-.03-2.7-.09-4.54l-.04-1.13,1.1-.24c4.21-.94,7.6-2.08,9.79-3.31,2.96-1.52,5.1-4.18,6.07-7.51,1.15-3.96.56-8.43-1.59-11.97-2.29-3.78-6.6-6.03-11.52-6.03-1.17,0-2.37.13-3.56.38-5.29,1.12-9.08,4.7-9.9,9.35-.42,2.4-.6,5.47-.56,9.64v1.26s-1.24.11-1.24.11c-1.59.14-3.03.21-4.26.21-.41,0-.81,0-1.17-.02-2.18-.1-4.71-.3-7.32-.59l-1.22-.14v-1.23c.04-2.17.07-4.48.1-6.92.07-5.15-4.33-10.04-10.45-11.62-1.48-.38-2.95-.58-4.35-.58-4.67,0-8.53,2.13-10.89,5.99-2.06,3.37-2.66,7.85-1.57,11.7.96,3.38,3.21,6.14,6.33,7.77,2.13,1.19,5.41,2.24,9.79,3.14l1.1.22v1.12c-.04,3.36-.06,6.28-.07,8.81-.09,13.03-.11,16.52-.84,21.67-.19,1.37.2,2.77,1.08,3.84.89,1.08,2.16,1.72,3.58,1.79.08,0,.16,0,.23,0,2.45,0,4.56-1.94,4.92-4.51.79-5.66.81-9.61.9-22.7.01-2.1.03-4.45.05-7.09v-1.49s1.5.15,1.5.15c3.93.39,6.68.53,6.7.53.49.02,1,.03,1.55.03,1.34,0,2.85-.06,4.5-.19l1.43-.11.04,1.43c.03.98.04,1.92.04,2.8.01,4.57.6,11.42.72,12.74v.05s0,.05,0,.05c.15,10.36,8.79,18.8,19.25,18.8,8.18,0,15.44-5.2,18.08-12.93,0,0,4.76-10.96,9.73-18.33,9.16-13.62,13.81-27.6,13.81-41.57Zm-87.07,23.38l-.02,1.71-1.66-.4c-2.12-.51-3.59-1.02-4.48-1.54-.08-.04-.16-.09-.24-.13-.76-.39-1.21-.92-1.44-1.73-.38-1.35-.03-3,.5-3.86.34-.55.96-1.28,2.48-1.28.54,0,1.16.09,1.89.28,1.82.48,3.04,2.15,3.02,4.06l-.04,2.89Zm34.92.33c.02-1.49.07-2.74.16-3.82.09-1.05.77-2.81,2.28-3.36.55-.2,1.14-.31,1.74-.31,1.37,0,2.54.53,3.06,1.38.7,1.16.92,2.8.55,4.09-.21.73-.58,1.23-1.09,1.48-.1.05-.19.1-.29.15-1.01.59-2.59,1.16-4.7,1.72l-1.73.46.02-1.79Z"/></g><g><g><g><path class="cls-1" d="m329.81,102.64c1.97,0,4.18-.12,6.61-.35,2.44-.23,5.16-.58,8.18-1.04V11.48c-2.44-.58-4.93-.98-7.48-1.22-2.55-.23-4.93-.35-7.13-.35-2.32,0-4.73.12-7.22.35-2.49.23-5.02.64-7.57,1.22v89.77c2.9.46,5.57.81,8,1.04,2.44.23,4.64.35,6.61.35Z"/><path class="cls-1" d="m418.28,100.12c6.9-2.26,12.53-5.48,16.88-9.66,4.35-4.18,7.54-9.22,9.57-15.14,2.03-5.92,3.04-12.53,3.04-19.83s-.99-13.28-2.96-18.96c-1.97-5.68-5.11-10.53-9.4-14.53-4.29-4-9.77-7.1-16.44-9.31-6.67-2.2-14.7-3.31-24.1-3.31-4.76,0-9.86.26-15.31.78-5.45.52-10.61,1.07-15.48,1.65v89.43c4.87.7,9.54,1.25,14.01,1.65,4.46.4,9.54.61,15.22.61,9.74,0,18.06-1.13,24.97-3.39Zm-24.79-65.5c.58-.11,1.45-.23,2.61-.35,1.16-.11,2.43-.17,3.83-.17,5.8,0,10.27,1.71,13.4,5.13,3.13,3.42,4.7,8.85,4.7,16.27,0,8.35-1.6,14.35-4.78,18.01-3.19,3.65-8.03,5.48-14.53,5.48-1.51,0-2.64-.06-3.39-.17-.76-.11-1.36-.17-1.83-.17v-44.02Z"/><path class="cls-1" d="m469.61,90.38c3.77,4.12,8.64,7.34,14.61,9.66,5.97,2.32,13.14,3.48,21.49,3.48,10.79,0,21.34-1.91,31.67-5.74-.12-4.52-.78-8.87-2-13.05-1.22-4.18-2.64-7.77-4.26-10.79-4.06,1.63-8.18,2.84-12.35,3.65-4.18.81-7.95,1.22-11.31,1.22-5.22,0-9.43-.98-12.61-2.96-3.19-1.97-5.42-5.33-6.7-10.09h52.89c.23-1.62.49-3.68.78-6.18.29-2.49.44-5.31.44-8.44,0-6.03-.9-11.63-2.7-16.79-1.8-5.16-4.38-9.57-7.74-13.22-3.36-3.65-7.45-6.52-12.27-8.61-4.81-2.09-10.29-3.13-16.44-3.13-7.42,0-13.92,1.25-19.49,3.74-5.57,2.5-10.21,5.89-13.92,10.18-3.71,4.29-6.5,9.34-8.35,15.14-1.86,5.8-2.78,12-2.78,18.62s.9,12.94,2.7,18.62c1.8,5.68,4.58,10.59,8.35,14.7Zm22.88-55.41c2.67-2.32,5.85-3.48,9.57-3.48,4.29,0,7.57,1.36,9.83,4.09,2.26,2.73,3.51,6.12,3.74,10.18h-27.84c.46-4.87,2.03-8.46,4.7-10.79Z"/><path class="cls-1" d="m563.21,90.38c3.77,4.12,8.64,7.34,14.61,9.66,5.97,2.32,13.14,3.48,21.49,3.48,10.79,0,21.34-1.91,31.67-5.74-.12-4.52-.78-8.87-2-13.05-1.22-4.18-2.64-7.77-4.26-10.79-4.06,1.63-8.18,2.84-12.35,3.65-4.18.81-7.95,1.22-11.31,1.22-5.22,0-9.43-.98-12.61-2.96-3.19-1.97-5.42-5.33-6.7-10.09h52.89c.23-1.62.49-3.68.78-6.18.29-2.49.44-5.31.44-8.44,0-6.03-.9-11.63-2.7-16.79-1.8-5.16-4.38-9.57-7.74-13.22-3.37-3.65-7.45-6.52-12.27-8.61-4.81-2.09-10.29-3.13-16.44-3.13-7.42,0-13.92,1.25-19.49,3.74-5.57,2.5-10.21,5.89-13.92,10.18-3.71,4.29-6.5,9.34-8.35,15.14-1.86,5.8-2.78,12-2.78,18.62s.9,12.94,2.7,18.62c1.8,5.68,4.58,10.59,8.35,14.7Zm22.88-55.41c2.67-2.32,5.86-3.48,9.57-3.48,4.29,0,7.57,1.36,9.83,4.09,2.26,2.73,3.51,6.12,3.74,10.18h-27.84c.46-4.87,2.03-8.46,4.7-10.79Z"/><path class="cls-1" d="m664.9,102.64c1.85,0,4-.09,6.44-.26,2.44-.17,5.16-.55,8.18-1.13V36.18c.35-.23,1.24-.46,2.7-.7,1.45-.23,2.81-.35,4.09-.35,4.75,0,8.29,1.33,10.61,4,2.32,2.67,3.48,7.08,3.48,13.22v48.89c3.01.58,5.74.96,8.18,1.13,2.43.17,4.64.26,6.61.26,1.85,0,4-.09,6.44-.26,2.44-.17,5.16-.55,8.18-1.13v-52.02c0-8.58-1.31-15.48-3.92-20.7-2.61-5.22-5.97-9.22-10.09-12-4.12-2.78-8.73-4.61-13.83-5.48-5.11-.87-10.21-1.3-15.31-1.3-8.7,0-15.95.67-21.75,2-5.8,1.33-10.73,2.7-14.79,4.09v85.43c3.01.58,5.74.96,8.18,1.13,2.43.17,4.64.26,6.61.26Z"/></g><g><path class="cls-1" d="m373.34,184.7h-30.99l.17-61.65c-2.3-.54-4.65-.93-7.05-1.15-2.41-.22-4.65-.33-6.72-.33-2.19,0-4.45.11-6.8.33-2.35.22-4.73.6-7.13,1.15l-.16,84.77h58.7c.54-2.19.9-4.24,1.07-6.15.16-1.91.25-3.74.25-5.49s-.08-3.55-.25-5.41c-.17-1.86-.52-3.88-1.07-6.07Z"/><path class="cls-1" d="m454.5,156.17c0-6.12-.88-11.4-2.62-15.82-1.75-4.43-4.24-8.06-7.46-10.9-3.23-2.84-7.13-4.94-11.72-6.31-4.59-1.37-9.73-2.05-15.41-2.05-4.15,0-8.83.44-14.02,1.31-5.19.88-10.41,2.19-15.66,3.93,0,2.19.08,4.13.25,5.82.16,1.7.44,3.34.82,4.92.38,1.59.93,3.14,1.64,4.67.71,1.53,1.56,3.23,2.54,5.08,3.71-1.31,7.32-2.27,10.82-2.87,3.5-.6,6.56-.9,9.18-.9,1.97,0,3.88.14,5.74.41,1.86.27,3.55.77,5.08,1.48,1.53.71,2.79,1.72,3.77,3.03.98,1.31,1.53,2.95,1.64,4.92h-10c-4.16,0-8.42.41-12.79,1.23-4.37.82-8.36,2.27-11.97,4.34-3.61,2.08-6.56,4.87-8.85,8.36-2.3,3.5-3.44,7.93-3.44,13.28s.96,10.08,2.87,13.86c1.91,3.77,4.56,6.8,7.95,9.1,3.39,2.3,7.46,3.96,12.22,5,4.75,1.04,9.97,1.56,15.66,1.56,6.56,0,12.79-.6,18.69-1.8,5.9-1.2,10.93-2.4,15.08-3.61v-48.04Zm-25.42,32.14c-.88.22-2.24.44-4.1.66-1.86.22-3.28.33-4.26.33-1.42,0-2.98-.11-4.67-.33-1.7-.22-3.28-.66-4.75-1.31-1.48-.66-2.71-1.61-3.69-2.87-.98-1.26-1.48-2.98-1.48-5.17,0-2.95,1.31-5.25,3.94-6.89,2.62-1.64,5.85-2.46,9.67-2.46h9.35v18.04Z"/><path class="cls-1" d="m550.1,183.06c0-5.58-1.48-9.89-4.43-12.95-2.95-3.06-6.72-5.41-11.31-7.05,3.28-2.07,5.87-4.56,7.79-7.46,1.91-2.9,2.87-6.42,2.87-10.58,0-8.2-3.39-14.24-10.17-18.12-6.78-3.88-17-5.82-30.66-5.82-2.08,0-4.51.06-7.3.16-2.79.11-5.66.27-8.61.49-2.95.22-5.85.47-8.69.74-2.84.27-5.36.57-7.54.9v84.28c6.45.87,12.76,1.45,18.94,1.72,6.17.27,11.17.41,15,.41,14.54,0,25.52-1.94,32.96-5.82,7.43-3.88,11.15-10.85,11.15-20.91Zm-50.67-43.12c1.09-.11,2.43-.19,4.02-.25,1.58-.05,2.98-.08,4.18-.08,3.94,0,6.64.79,8.12,2.38,1.48,1.59,2.21,3.31,2.21,5.16,0,1.97-.71,3.85-2.13,5.66-1.42,1.8-4.21,2.71-8.36,2.71h-8.03v-15.58Zm18.2,47.72c-1.97,1.53-5.25,2.3-9.84,2.3-2.41,0-4.32-.05-5.74-.16-1.42-.11-2.3-.16-2.62-.16v-16.89h7.54c2.84,0,5.14.25,6.89.74,1.75.49,3.12,1.12,4.1,1.88.98.77,1.67,1.67,2.05,2.71.38,1.04.57,2.11.57,3.2,0,2.73-.98,4.87-2.95,6.4Z"/><path class="cls-1" d="m641.84,147.56c-1.8-5.52-4.48-10.25-8.03-14.18-3.55-3.93-7.95-6.97-13.2-9.1-5.25-2.13-11.37-3.2-18.37-3.2s-12.95,1.07-18.2,3.2c-5.25,2.13-9.65,5.17-13.2,9.1-3.55,3.94-6.23,8.67-8.03,14.18-1.8,5.52-2.71,11.62-2.71,18.28s.9,12.54,2.71,17.96c1.8,5.41,4.48,10.06,8.03,13.94,3.55,3.88,7.95,6.86,13.2,8.94,5.25,2.08,11.31,3.11,18.2,3.11s13.12-1.04,18.37-3.11c5.25-2.08,9.65-5.06,13.2-8.94,3.55-3.88,6.23-8.53,8.03-13.94,1.8-5.41,2.71-11.4,2.71-17.96s-.9-12.76-2.71-18.28Zm-28.86,34.19c-2.35,3.72-5.93,5.57-10.74,5.57s-8.36-1.86-10.66-5.57c-2.3-3.71-3.44-9.02-3.44-15.91s1.15-12.35,3.44-16.07c2.3-3.71,5.85-5.58,10.66-5.58s8.39,1.86,10.74,5.58c2.35,3.72,3.53,9.07,3.53,16.07s-1.18,12.19-3.53,15.91Z"/><path class="cls-1" d="m731.2,208.47c2.68-.22,5.11-.55,7.3-.98l-18.69-35.74c.76-.66,1.75-1.53,2.95-2.62,1.2-1.09,2.35-2.54,3.44-4.35,1.09-1.8,2.02-3.96,2.79-6.48.76-2.51,1.15-5.47,1.15-8.85,0-8.96-3.31-15.93-9.92-20.91-6.62-4.97-16.54-7.46-29.76-7.46-4.92,0-10.14.22-15.66.66-5.52.44-10.85.98-15.99,1.64v84.28c2.84.55,5.36.9,7.54,1.07,2.19.16,4.21.25,6.07.25,1.75,0,3.77-.08,6.07-.25,2.3-.17,4.86-.52,7.71-1.07v-64.44c1.09-.22,2.68-.33,4.75-.33,3.71,0,6.42.9,8.12,2.71,1.69,1.8,2.54,4.13,2.54,6.97s-.71,5.49-2.13,7.95c-1.42,2.46-4.05,4.78-7.87,6.97l-2.3,1.31,18.2,38.7c1.86.44,4.21.76,7.05.98,2.84.22,5.79.33,8.85.33,2.51,0,5.11-.11,7.79-.33Z"/></g></g><g><path class="cls-1" d="m332.47,252.86c-2.51,0-4.96.17-7.35.52-2.39.35-4.4.77-6.03,1.27,0,.94.11,1.95.33,3.02.22,1.07.49,1.88.8,2.45,1.63-.5,3.49-.93,5.56-1.27,2.07-.34,4.37-.52,6.88-.52,3.83,0,6.72.96,8.67,2.88,1.95,1.92,2.92,4.95,2.92,9.09v2.92c-1.07-.12-2.42-.27-4.05-.42-1.63-.16-3.58-.24-5.84-.24-2.89,0-5.54.35-7.96,1.04-2.42.69-4.49,1.71-6.22,3.06-1.73,1.35-3.08,3.02-4.05,4.99-.97,1.98-1.46,4.23-1.46,6.74,0,5.21,1.68,8.98,5.04,11.31,3.36,2.32,7.96,3.49,13.81,3.49,2.83,0,5.81-.22,8.95-.66,3.14-.44,5.81-.88,8.01-1.32v-31.76c0-5.72-1.48-9.91-4.43-12.58-2.95-2.67-7.48-4-13.57-4Zm11.78,43.82c-1.63.31-3.3.57-4.99.75s-3.52.28-5.47.28c-1.51,0-3.02-.11-4.52-.33-1.51-.22-2.89-.66-4.15-1.32-1.26-.66-2.28-1.62-3.06-2.87-.79-1.26-1.18-2.92-1.18-4.99,0-3.27,1.29-5.78,3.86-7.54,2.58-1.76,6.22-2.64,10.93-2.64,1.44,0,2.97.08,4.57.24,1.6.16,2.94.3,4,.42v18Z"/><path class="cls-1" d="m421.52,254.22c-1.19.16-2.36.35-3.49.57s-2.17.49-3.11.8-1.73.6-2.36.85c-1.51-1.07-3.27-1.93-5.28-2.59-2.01-.66-4.3-.99-6.88-.99-3.02,0-5.67.44-7.96,1.32-2.29.88-4.23,2.07-5.8,3.58s-2.75,3.28-3.53,5.33c-.79,2.04-1.18,4.23-1.18,6.55,0,3.2.66,5.97,1.98,8.29,1.32,2.33,3.08,4.18,5.28,5.56-1.95,1.32-3.5,2.8-4.67,4.43-1.16,1.63-1.74,3.68-1.74,6.13,0,1.7.41,3.13,1.22,4.29.82,1.16,1.82,2.12,3.02,2.88-2.2,1.07-3.99,2.7-5.37,4.9-1.38,2.2-2.07,4.49-2.07,6.88s.47,4.29,1.41,5.89c.94,1.6,2.28,2.89,4.01,3.86,1.73.97,3.77,1.68,6.12,2.12,2.36.44,4.95.66,7.77.66,3.64,0,7.02-.39,10.13-1.18,3.11-.79,5.8-1.88,8.06-3.3,2.26-1.41,4.02-3.11,5.28-5.09,1.26-1.98,1.88-4.19,1.88-6.64,0-3.58-1.18-6.46-3.53-8.62-2.36-2.17-6.3-3.31-11.83-3.44l-12.25-.19c-1.7,0-3.08-.14-4.15-.42-1.07-.28-1.9-.66-2.5-1.13-.6-.47-.99-.99-1.18-1.55s-.28-1.16-.28-1.79c0-1.32.36-2.5,1.08-3.53.72-1.04,1.96-2.12,3.72-3.25,2.01.69,4.37,1.04,7.07,1.04s4.98-.38,7.21-1.13c2.23-.75,4.18-1.84,5.84-3.25,1.66-1.41,2.97-3.16,3.91-5.23s1.41-4.46,1.41-7.16c0-1.76-.24-3.41-.71-4.95-.47-1.54-1.15-3-2.03-4.38h8.95c.25-.94.38-2.01.38-3.2,0-1.13-.13-2.17-.38-3.11-1.13,0-2.29.08-3.49.24Zm-26.01,48.67l11.69.19c3.71.06,6.38.6,8.01,1.6,1.63,1,2.45,2.7,2.45,5.09,0,2.76-1.63,5.14-4.9,7.12-3.27,1.98-7.82,2.97-13.67,2.97-1.82,0-3.55-.11-5.18-.33-1.63-.22-3.06-.61-4.29-1.18-1.22-.57-2.18-1.35-2.87-2.36-.69-1.01-1.04-2.26-1.04-3.77,0-2.83.9-5.11,2.69-6.83,1.79-1.73,4.16-2.56,7.11-2.5Zm13.95-25.02c-1.95,2.23-4.96,3.35-9.05,3.35s-7.08-1.12-9-3.35c-1.92-2.23-2.88-4.98-2.88-8.25s.96-6.02,2.88-8.25c1.92-2.23,4.92-3.35,9-3.35s7.1,1.12,9.05,3.35c1.95,2.23,2.92,4.98,2.92,8.25s-.97,6.02-2.92,8.25Z"/><path class="cls-1" d="m485.09,258.94c-1.67-1.92-3.72-3.41-6.17-4.48s-5.25-1.6-8.39-1.6c-3.77,0-7.01.66-9.71,1.98-2.7,1.32-4.92,3.14-6.64,5.46-1.73,2.33-3.02,5.03-3.86,8.11-.85,3.08-1.27,6.38-1.27,9.89s.46,6.99,1.37,10.04c.91,3.05,2.32,5.67,4.24,7.87,1.92,2.2,4.37,3.91,7.35,5.14,2.98,1.23,6.55,1.84,10.7,1.84,2.89,0,5.56-.22,8.01-.66s4.58-1.07,6.41-1.88c-.06-.82-.19-1.73-.38-2.73-.19-1-.44-1.85-.75-2.54-1.95.69-3.94,1.24-5.98,1.65-2.04.41-4.26.61-6.64.61-5.91,0-10.33-1.51-13.29-4.52s-4.43-7.73-4.43-14.14h34.3c.06-.63.11-1.38.14-2.26.03-.88.05-1.6.05-2.17,0-3.14-.42-6.05-1.27-8.72-.85-2.67-2.11-4.96-3.77-6.88Zm-29.26,14.84c.5-4.9,1.98-8.7,4.43-11.4s5.87-4.05,10.27-4.05c2.39,0,4.43.44,6.12,1.32,1.7.88,3.08,2.03,4.15,3.44,1.07,1.41,1.85,3.06,2.36,4.95.5,1.88.75,3.8.75,5.75h-28.08Z"/><path class="cls-1" d="m544.22,252.86c-2.07,0-3.99.3-5.75.9-1.76.6-3.31,1.37-4.66,2.31-1.35.94-2.53,2-3.53,3.16-1.01,1.16-1.82,2.31-2.45,3.44,0-1.26-.03-2.73-.09-4.43-.06-1.7-.16-3.11-.28-4.24-.5-.06-.97-.11-1.41-.14-.44-.03-.91-.05-1.41-.05-.44,0-.9.02-1.37.05-.47.03-.96.08-1.46.14v48.06c.38.06.91.11,1.6.14.69.03,1.19.05,1.51.05.38,0,.9-.02,1.56-.05.66-.03,1.18-.08,1.55-.14v-23.75c0-3.14.41-5.94,1.22-8.39.82-2.45,1.93-4.51,3.35-6.17,1.41-1.66,3.09-2.94,5.04-3.82,1.95-.88,4.02-1.32,6.22-1.32,3.33,0,5.83,1.16,7.49,3.49,1.66,2.33,2.5,6.16,2.5,11.5v28.46c.38.06.91.11,1.6.14.69.03,1.19.05,1.51.05.38,0,.9-.02,1.56-.05.66-.03,1.18-.08,1.55-.14v-30.34c0-5.97-1.26-10.6-3.77-13.9-2.51-3.3-6.54-4.95-12.06-4.95Z"/><path class="cls-1" d="m609.15,297.62c-.88,0-1.74-.08-2.59-.24-.85-.16-1.6-.49-2.26-.99-.66-.5-1.19-1.21-1.6-2.12-.41-.91-.61-2.15-.61-3.72v-31.29h13c.06-.31.11-.72.14-1.23.03-.5.05-1,.05-1.51s-.02-.97-.05-1.41c-.03-.44-.08-.82-.14-1.13h-13v-14.8h-.38l-5.84,5.75v9.05h-8.2c-.06.32-.11.69-.14,1.13-.03.44-.05.91-.05,1.41s.01,1.01.05,1.51c.03.5.08.91.14,1.23h8.2v31.57c0,4.33,1.12,7.46,3.35,9.38,2.23,1.92,5.14,2.87,8.72,2.87,3.02,0,5.65-.35,7.92-1.04-.19-1.88-.5-3.64-.94-5.28-1.63.57-3.55.85-5.75.85Z"/><path class="cls-1" d="m678.13,253.8c-.32,0-.82.02-1.51.05-.69.03-1.23.08-1.6.14v42.5c-1.26.38-2.7.68-4.33.89-1.63.22-3.49.33-5.56.33-2.45,0-4.65-.24-6.6-.71-1.95-.47-3.6-1.32-4.95-2.54-1.35-1.23-2.37-2.92-3.06-5.09-.69-2.17-1.04-4.95-1.04-8.34v-27.05c-.38-.06-.9-.11-1.55-.14-.66-.03-1.18-.05-1.56-.05-.31,0-.82.02-1.51.05-.69.03-1.22.08-1.6.14v27.42c0,4.52.57,8.2,1.7,11.03s2.65,5.04,4.57,6.64c1.92,1.6,4.18,2.69,6.79,3.25,2.61.57,5.39.85,8.34.85s5.95-.24,8.81-.71c2.86-.47,5.45-1.02,7.77-1.65v-46.84c-.38-.06-.89-.11-1.55-.14-.66-.03-1.18-.05-1.55-.05Z"/><path class="cls-1" d="m738.25,253.99c-.44-.06-.83-.09-1.18-.09h-.99c-3.71,0-6.69.8-8.95,2.4-2.26,1.6-4.02,3.57-5.28,5.89,0-1.26-.03-2.65-.09-4.19-.06-1.54-.16-2.87-.28-4-.5-.06-.97-.11-1.41-.14-.44-.03-.91-.05-1.41-.05-.44,0-.9.02-1.37.05-.47.03-.96.08-1.46.14v48.06c.38.06.91.11,1.6.14.69.03,1.19.05,1.51.05.38,0,.9-.02,1.56-.05.66-.03,1.18-.08,1.55-.14v-24.69c0-6.28,1.29-10.77,3.86-13.48s6-4.05,10.27-4.05h.9c.28,0,.67.03,1.18.09.19-.94.28-1.92.28-2.92,0-.94-.09-1.95-.28-3.02Z"/></g></g></svg>