<svg xmlns="http://www.w3.org/2000/svg" xmlns:xlink="http://www.w3.org/1999/xlink" width="294" height="294" viewBox="0 0 294 294">
  <defs>
    <clipPath id="clip-path">
      <rect id="Rechteck_69" data-name="Rechteck 69" width="123.045" height="205.276" fill="#1e85c7"/>
    </clipPath>
  </defs>
  <g id="Gruppe_50" data-name="Gruppe 50" transform="translate(-813 -381)">
    <circle id="Ellipse_48" data-name="Ellipse 48" cx="147" cy="147" r="147" transform="translate(813 381)" fill="#f8f8f8"/>
    <g id="Gruppe_49" data-name="Gruppe 49" transform="translate(898.479 421.362)">
      <g id="Gruppe_48" data-name="Gruppe 48" clip-path="url(#clip-path)">
        <path id="Pfad_18" data-name="Pfad 18" d="M133.1,112.2l-38.074-68.3c-.129-.261-.24-.481-.345-.692a11.156,11.156,0,0,1-1.607-6c0-.091,0-.182-.006-.275s-.008-.214-.008-.322V29.886s0-1.484,0-2.963l0-2.033,0-.671c0-.322,0-.722.462-.827a11.893,11.893,0,0,0,9.225-11.759A12.054,12.054,0,0,0,90.617,0H57.725a11.768,11.768,0,0,0-9.384,4.628,11.939,11.939,0,0,0-2.035,10.417,11.748,11.748,0,0,0,11.434,8.638h.033a2.15,2.15,0,0,0,1.735-.886,2.188,2.188,0,0,0,.286-1.99A2.131,2.131,0,0,0,57.759,19.4h-.035a7.568,7.568,0,0,1-7.455-8.814,7.722,7.722,0,0,1,7.657-6.3H90.7a7.7,7.7,0,0,1,7.706,6.49A7.567,7.567,0,0,1,90.923,19.4a2.2,2.2,0,0,0-2.143,2.208v14.7c0,4.925.424,5.873,2.429,9.544l38.127,68.391a8.988,8.988,0,0,1,.925,4.927,9.171,9.171,0,0,1-9.191,8.151H100.1a2.145,2.145,0,0,0-2.1,2.581,2.206,2.206,0,0,0,2.216,1.7h21.062a13.306,13.306,0,0,0,11.859-19.33Z" transform="translate(-14.065)" fill="#1e85c7"/>
        <path id="Pfad_19" data-name="Pfad 19" d="M90.4,109.916A30.193,30.193,0,0,0,60.726,79.761c-.06,0-.1,0-.137,0h-.344c-.039,0-.077,0-.115,0a30.194,30.194,0,0,0-29.7,30.156c0,6.062,2.017,12.133,6,18.044,3.364,5,4.87,8.712,4.88,12.038a4.516,4.516,0,0,1-1.1,3.32,4.765,4.765,0,0,1-3.379,1.151H13.516a9.189,9.189,0,0,1-9.228-8.738,8.923,8.923,0,0,1,.949-4.319L45.485,59.129a2.142,2.142,0,1,0-3.742-2.084L1.479,129.354c-.013.024-.025.046-.037.069A13.305,13.305,0,0,0,13.3,148.754H36.83a8.8,8.8,0,0,0,6.413-2.41,8.62,8.62,0,0,0,2.349-6.359c-.014-4.225-1.744-8.672-5.61-14.416-3.494-5.192-5.266-10.458-5.266-15.652a25.7,25.7,0,1,1,51.4,0c0,5.194-1.771,10.461-5.266,15.652a36.635,36.635,0,0,0-4.725,8.974,4.047,4.047,0,0,1-7.864-1.3c0-.065,0-.131-.009-.2,0-.031-.3-3.278-.3-5.26,0-.545-.012-1.171-.038-1.972l-.016-.49.479-.106a16.47,16.47,0,0,0,4.248-1.436,5.243,5.243,0,0,0,2.633-3.261,6.61,6.61,0,0,0-.689-5.2,5.728,5.728,0,0,0-5-2.619,7.5,7.5,0,0,0-1.544.164,5.208,5.208,0,0,0-4.3,4.06,23.427,23.427,0,0,0-.243,4.185l0,.547-.544.047c-.692.06-1.314.09-1.85.09q-.269,0-.509-.01c-.946-.043-2.044-.132-3.176-.257l-.531-.058.006-.535q.017-1.414.037-3c.031-2.237-1.878-4.358-4.537-5.042a7.58,7.58,0,0,0-1.89-.25,5.339,5.339,0,0,0-4.728,2.6,6.589,6.589,0,0,0-.682,5.081,5.448,5.448,0,0,0,2.75,3.371,15.463,15.463,0,0,0,4.248,1.363l.476.1,0,.486c-.012,1.46-.021,2.725-.028,3.825-.037,5.655-.047,7.173-.365,9.405a2.144,2.144,0,0,0,2.022,2.442l.1,0a2.217,2.217,0,0,0,2.135-1.958,70.67,70.67,0,0,0,.39-9.855c.006-.913.013-1.931.021-3.078l.006-.647.644.064c1.705.169,2.9.229,2.911.229.211.01.435.015.674.015.58,0,1.238-.027,1.954-.08l.619-.046.017.619c.01.426.017.834.017,1.214.006,1.986.261,4.956.311,5.531l0,.021v.022a8.332,8.332,0,0,0,16.205,2.547,60.293,60.293,0,0,1,4.222-7.959c3.978-5.911,6-11.982,6-18.044m-37.8,10.15-.008.741-.721-.175a7.878,7.878,0,0,1-1.947-.667c-.033-.019-.068-.037-.1-.056a1.128,1.128,0,0,1-.623-.75,2.344,2.344,0,0,1,.215-1.677,1.131,1.131,0,0,1,1.074-.555,3.323,3.323,0,0,1,.82.121,1.777,1.777,0,0,1,1.31,1.764Zm15.159.145c.007-.646.029-1.188.069-1.658a1.758,1.758,0,0,1,.99-1.46,2.193,2.193,0,0,1,.755-.134,1.528,1.528,0,0,1,1.327.6,2.357,2.357,0,0,1,.237,1.775.972.972,0,0,1-.472.644c-.043.021-.084.043-.124.067a8.8,8.8,0,0,1-2.041.747l-.75.2Z" transform="translate(0 -17.147)" fill="#1e85c7"/>
        <path id="Pfad_20" data-name="Pfad 20" d="M4.477,239.253q.858,0,1.92-.1t2.374-.3V212.788a15.469,15.469,0,0,0-2.172-.354q-1.111-.1-2.071-.1-1.011,0-2.1.1a17.068,17.068,0,0,0-2.2.354v26.061q1.262.2,2.323.3t1.919.1" transform="translate(-0.072 -65.08)" fill="#1e85c7"/>
        <path id="Pfad_21" data-name="Pfad 21" d="M29.184,239.439a23.424,23.424,0,0,0,7.248-.985,12.623,12.623,0,0,0,4.9-2.8,10.894,10.894,0,0,0,2.778-4.394,17.678,17.678,0,0,0,.884-5.758,16.723,16.723,0,0,0-.859-5.505,10.3,10.3,0,0,0-2.727-4.217,12.762,12.762,0,0,0-4.773-2.7,22.469,22.469,0,0,0-7-.959q-2.071,0-4.444.227t-4.5.479v25.961q2.121.3,4.066.48t4.419.177m.051-20q.252-.05.757-.1c.336-.033.707-.05,1.111-.05a5.007,5.007,0,0,1,3.889,1.49,6.851,6.851,0,0,1,1.364,4.722q0,3.637-1.389,5.228a5.3,5.3,0,0,1-4.217,1.591,7,7,0,0,1-.985-.051,3.81,3.81,0,0,0-.53-.05Z" transform="translate(-6.344 -65.013)" fill="#1e85c7"/>
        <path id="Pfad_22" data-name="Pfad 22" d="M63.451,235.625a11.06,11.06,0,0,0,4.243,2.8,17.235,17.235,0,0,0,6.237,1.01,26.237,26.237,0,0,0,9.192-1.667,14.839,14.839,0,0,0-.581-3.788,16.228,16.228,0,0,0-1.237-3.131,19.777,19.777,0,0,1-3.586,1.06,17.3,17.3,0,0,1-3.283.354,6.89,6.89,0,0,1-3.662-.859,4.67,4.67,0,0,1-1.945-2.929H84.184q.1-.707.227-1.793a21.59,21.59,0,0,0,.126-2.449,14.735,14.735,0,0,0-.783-4.874,10.862,10.862,0,0,0-2.248-3.838,10.393,10.393,0,0,0-3.56-2.5,11.891,11.891,0,0,0-4.773-.909,13.735,13.735,0,0,0-5.656,1.086,11.447,11.447,0,0,0-4.041,2.955,12.4,12.4,0,0,0-2.424,4.394,18.739,18.739,0,0,0-.025,10.808,11.233,11.233,0,0,0,2.424,4.268m6.642-16.086a4.09,4.09,0,0,1,2.777-1.01,3.5,3.5,0,0,1,2.854,1.187,4.937,4.937,0,0,1,1.086,2.954H68.73a4.534,4.534,0,0,1,1.363-3.131" transform="translate(-18.465 -65.013)" fill="#1e85c7"/>
        <path id="Pfad_23" data-name="Pfad 23" d="M102.633,235.625a11.062,11.062,0,0,0,4.242,2.8,17.242,17.242,0,0,0,6.238,1.01,26.237,26.237,0,0,0,9.192-1.667,14.839,14.839,0,0,0-.581-3.788,16.229,16.229,0,0,0-1.237-3.131,19.778,19.778,0,0,1-3.586,1.06,17.3,17.3,0,0,1-3.283.354,6.89,6.89,0,0,1-3.662-.859,4.67,4.67,0,0,1-1.945-2.929h15.354q.1-.707.227-1.793a21.584,21.584,0,0,0,.126-2.449,14.734,14.734,0,0,0-.783-4.874,10.863,10.863,0,0,0-2.248-3.838,10.393,10.393,0,0,0-3.56-2.5,11.893,11.893,0,0,0-4.773-.909A13.736,13.736,0,0,0,106.7,213.2a11.447,11.447,0,0,0-4.041,2.955,12.4,12.4,0,0,0-2.424,4.394,17.607,17.607,0,0,0-.809,5.4,17.825,17.825,0,0,0,.783,5.4,11.234,11.234,0,0,0,2.424,4.268m6.642-16.086a4.09,4.09,0,0,1,2.777-1.01,3.5,3.5,0,0,1,2.854,1.187,4.937,4.937,0,0,1,1.086,2.954h-8.081a4.531,4.531,0,0,1,1.363-3.131" transform="translate(-30.474 -65.013)" fill="#1e85c7"/>
        <path id="Pfad_24" data-name="Pfad 24" d="M144.721,239.231q.807,0,1.869-.076a20.391,20.391,0,0,0,2.374-.329V219.938a2.525,2.525,0,0,1,.783-.2,7.524,7.524,0,0,1,1.187-.1,3.87,3.87,0,0,1,3.081,1.161,5.834,5.834,0,0,1,1.01,3.839v14.192a20.37,20.37,0,0,0,2.374.329q1.06.076,1.919.076.808,0,1.869-.076a20.391,20.391,0,0,0,2.374-.329v-15.1a13.508,13.508,0,0,0-1.137-6.011,8.875,8.875,0,0,0-2.929-3.485,10.115,10.115,0,0,0-4.015-1.591,26.43,26.43,0,0,0-4.445-.379,28.846,28.846,0,0,0-6.314.58,43.74,43.74,0,0,0-4.293,1.187v24.8a20.371,20.371,0,0,0,2.374.329q1.06.076,1.919.076" transform="translate(-43.041 -65.058)" fill="#1e85c7"/>
        <path id="Pfad_25" data-name="Pfad 25" d="M17.35,282.326q.072-.832.072-1.594t-.072-1.571a11.653,11.653,0,0,0-.309-1.762h-9l.048-17.9a14.638,14.638,0,0,0-2.047-.334q-1.048-.1-1.951-.1c-.636,0-1.293.031-1.976.1a16.169,16.169,0,0,0-2.071.334L0,284.111H17.041a11.546,11.546,0,0,0,.309-1.785" transform="translate(0 -79.406)" fill="#1e85c7"/>
        <path id="Pfad_26" data-name="Pfad 26" d="M44.87,284.048q2.569-.524,4.379-1.047V269.054a12.507,12.507,0,0,0-.761-4.594,8.118,8.118,0,0,0-2.166-3.165,8.924,8.924,0,0,0-3.4-1.833,15.687,15.687,0,0,0-4.474-.594,24.73,24.73,0,0,0-4.069.381,30.247,30.247,0,0,0-4.546,1.142q0,.953.071,1.689a10.249,10.249,0,0,0,.238,1.429,7.2,7.2,0,0,0,.476,1.356q.309.667.737,1.475a19.249,19.249,0,0,1,3.142-.833,16.045,16.045,0,0,1,2.666-.261,11.571,11.571,0,0,1,1.666.119,5.354,5.354,0,0,1,1.476.429,2.849,2.849,0,0,1,1.1.881,2.559,2.559,0,0,1,.476,1.428h-2.9a20.127,20.127,0,0,0-3.712.357,10.969,10.969,0,0,0-3.475,1.261,7.534,7.534,0,0,0-2.57,2.428,6.894,6.894,0,0,0-1,3.855,8.812,8.812,0,0,0,.834,4.023,6.9,6.9,0,0,0,2.308,2.642,10.087,10.087,0,0,0,3.547,1.452,21.31,21.31,0,0,0,4.546.452,27.167,27.167,0,0,0,5.427-.523m-8.164-5.855a2.766,2.766,0,0,1-1.071-.833,2.371,2.371,0,0,1-.429-1.5,2.237,2.237,0,0,1,1.142-2,5.2,5.2,0,0,1,2.809-.714H41.87v5.236a10.267,10.267,0,0,1-1.19.19,11.346,11.346,0,0,1-1.237.1,10.586,10.586,0,0,1-1.356-.1,4.912,4.912,0,0,1-1.381-.381" transform="translate(-8.646 -79.343)" fill="#1e85c7"/>
        <path id="Pfad_27" data-name="Pfad 27" d="M86.24,268.888a5.452,5.452,0,0,0,.833-3.07,5.641,5.641,0,0,0-2.951-5.26q-2.952-1.689-8.9-1.689-.905,0-2.118.047t-2.5.143q-1.285.1-2.523.214t-2.189.261V284q2.808.38,5.5.5t4.355.119q6.33,0,9.568-1.69t3.237-6.069a5.2,5.2,0,0,0-1.285-3.76,8.406,8.406,0,0,0-3.284-2.047,7.39,7.39,0,0,0,2.261-2.165m-12.4-4.546q.475-.047,1.166-.071t1.214-.024a3.164,3.164,0,0,1,2.356.691,2.158,2.158,0,0,1,.643,1.5,2.621,2.621,0,0,1-.619,1.642,2.979,2.979,0,0,1-2.427.786H73.84Zm5.284,13.851a4.725,4.725,0,0,1-2.856.666q-1.048,0-1.666-.048t-.761-.047v-4.9h2.19a7.6,7.6,0,0,1,2,.214,3.482,3.482,0,0,1,1.19.547,1.764,1.764,0,0,1,.6.786,2.672,2.672,0,0,1,.167.928,2.217,2.217,0,0,1-.857,1.857" transform="translate(-20.196 -79.343)" fill="#1e85c7"/>
        <path id="Pfad_28" data-name="Pfad 28" d="M126.477,266.554a11.3,11.3,0,0,0-2.332-4.117,10.307,10.307,0,0,0-3.832-2.642,14.123,14.123,0,0,0-5.332-.928,13.98,13.98,0,0,0-5.284.928,10.306,10.306,0,0,0-3.832,2.642,11.287,11.287,0,0,0-2.332,4.117,17.017,17.017,0,0,0-.786,5.307,16.407,16.407,0,0,0,.786,5.212,11.1,11.1,0,0,0,2.332,4.046,10.186,10.186,0,0,0,3.832,2.594,14.3,14.3,0,0,0,5.284.9,14.443,14.443,0,0,0,5.332-.9,10.186,10.186,0,0,0,3.832-2.594,11.108,11.108,0,0,0,2.332-4.046,16.407,16.407,0,0,0,.786-5.212,17.017,17.017,0,0,0-.786-5.307m-8.377,9.925a3.437,3.437,0,0,1-3.118,1.619,3.379,3.379,0,0,1-3.094-1.619,8.827,8.827,0,0,1-1-4.617,8.94,8.94,0,0,1,1-4.664,3.38,3.38,0,0,1,3.094-1.619A3.438,3.438,0,0,1,118.1,267.2a8.769,8.769,0,0,1,1.024,4.664,8.658,8.658,0,0,1-1.024,4.617" transform="translate(-31.492 -79.343)" fill="#1e85c7"/>
        <path id="Pfad_29" data-name="Pfad 29" d="M153.588,272.339l-.666.381,5.284,11.233a13.8,13.8,0,0,0,2.047.286q1.237.095,2.571.1,1.094,0,2.261-.1a18.659,18.659,0,0,0,2.118-.286l-5.426-10.376q.332-.286.856-.761a5.654,5.654,0,0,0,1-1.261,8.308,8.308,0,0,0,.809-1.881,8.866,8.866,0,0,0,.334-2.57,7.159,7.159,0,0,0-2.88-6.069q-2.88-2.166-8.64-2.166-2.142,0-4.545.19t-4.642.476V284a19.5,19.5,0,0,0,2.19.31q.952.071,1.761.071.761,0,1.762-.071a19.238,19.238,0,0,0,2.237-.31V265.294a7.558,7.558,0,0,1,1.38-.1,3.105,3.105,0,0,1,2.357.785,2.837,2.837,0,0,1,.738,2.023,4.542,4.542,0,0,1-.619,2.309,5.978,5.978,0,0,1-2.285,2.023" transform="translate(-44.157 -79.343)" fill="#1e85c7"/>
      </g>
    </g>
  </g>
</svg>
