<svg xmlns="http://www.w3.org/2000/svg" width="161.365" height="176.213" viewBox="0 0 161.365 176.213">
  <g id="Gruppe_59" data-name="Gruppe 59" transform="translate(-930.33 -3649.436)">
    <path id="Pfad_68" data-name="Pfad 68" d="M162.662,150.234,111.684,58.791c-.173-.349-.321-.644-.462-.927-1.342-2.681-2.151-4.3-2.151-8.033,0-.122,0-.244-.007-.368,0-.143-.01-.287-.01-.432V40.016c0-.006,0-1.987.006-3.967l.006-2.722,0-.9c0-.431.007-.967.618-1.107a15.924,15.924,0,0,0,12.352-15.744A16.14,16.14,0,0,0,105.776,0H61.736A15.757,15.757,0,0,0,49.172,6.2a15.986,15.986,0,0,0-2.725,13.948A15.729,15.729,0,0,0,61.756,31.71H61.8a2.879,2.879,0,0,0,2.323-1.186,2.93,2.93,0,0,0,.383-2.664,2.853,2.853,0,0,0-2.723-1.886h-.046a10.133,10.133,0,0,1-9.982-11.8A10.339,10.339,0,0,1,62.007,5.737h43.881a10.312,10.312,0,0,1,10.318,8.689,10.131,10.131,0,0,1-10.02,11.548,2.941,2.941,0,0,0-2.869,2.956V48.616c0,6.594.568,7.864,3.252,12.779l51.049,91.57a12.034,12.034,0,0,1,1.239,6.6,12.279,12.279,0,0,1-12.306,10.914H118.479a2.872,2.872,0,0,0-2.81,3.455,2.954,2.954,0,0,0,2.967,2.281h28.2a17.816,17.816,0,0,0,15.878-25.881Z" transform="translate(927.051 3649.436)" fill="#1e85c7"/>
    <path id="Pfad_69" data-name="Pfad 69" d="M121.043,128.209A40.427,40.427,0,0,0,81.308,87.833c-.08,0-.132,0-.184,0h-.461c-.052,0-.1,0-.154,0a40.427,40.427,0,0,0-39.765,40.377c0,8.116,2.7,16.245,8.028,24.16,4.5,6.694,6.52,11.664,6.534,16.119a6.046,6.046,0,0,1-1.471,4.446,6.38,6.38,0,0,1-4.524,1.54H18.1a12.3,12.3,0,0,1-12.355-11.7,11.947,11.947,0,0,1,1.27-5.783L60.9,60.208a2.867,2.867,0,1,0-5.01-2.79L1.981,154.234c-.018.032-.033.062-.049.093A17.815,17.815,0,0,0,17.81,180.209h31.5a11.789,11.789,0,0,0,8.586-3.227,11.541,11.541,0,0,0,3.145-8.514c-.019-5.658-2.335-11.611-7.512-19.3-4.678-6.951-7.05-14-7.05-20.957a34.414,34.414,0,1,1,68.826,0c0,6.955-2.372,14.006-7.05,20.957a49.051,49.051,0,0,0-6.326,12.015,5.418,5.418,0,0,1-10.53-1.735c0-.087,0-.175-.012-.262,0-.041-.4-4.389-.408-7.042,0-.73-.016-1.568-.051-2.641l-.021-.656.641-.142a22.053,22.053,0,0,0,5.688-1.922,7.02,7.02,0,0,0,3.525-4.366,8.85,8.85,0,0,0-.923-6.956,7.669,7.669,0,0,0-6.7-3.506,10.038,10.038,0,0,0-2.068.22,6.973,6.973,0,0,0-5.754,5.436,31.367,31.367,0,0,0-.325,5.6l.006.733-.729.063c-.927.08-1.76.121-2.477.121q-.361,0-.682-.014c-1.267-.058-2.737-.176-4.253-.344l-.711-.078.007-.717q.022-1.893.05-4.022c.041-3-2.514-5.835-6.075-6.751a10.149,10.149,0,0,0-2.53-.335,7.148,7.148,0,0,0-6.331,3.48,8.822,8.822,0,0,0-.914,6.8,7.294,7.294,0,0,0,3.682,4.514,20.7,20.7,0,0,0,5.687,1.826l.637.13,0,.651c-.017,1.955-.028,3.648-.037,5.121-.05,7.572-.063,9.6-.488,12.593a2.871,2.871,0,0,0,2.708,3.269l.135,0a2.969,2.969,0,0,0,2.859-2.621c.458-3.288.473-5.585.523-13.2.008-1.223.018-2.586.029-4.121l.007-.866.862.086c2.283.227,3.882.306,3.9.306.282.013.582.02.9.02.777,0,1.657-.036,2.616-.108l.828-.062.022.829c.014.571.023,1.116.023,1.626.007,2.658.349,6.636.417,7.405l0,.029v.03a11.155,11.155,0,0,0,21.7,3.411,80.728,80.728,0,0,1,5.653-10.656c5.326-7.915,8.027-16.043,8.027-24.16M70.435,141.8l-.011.993-.966-.234a10.549,10.549,0,0,1-2.606-.893c-.044-.025-.091-.05-.139-.075a1.511,1.511,0,0,1-.835-1,3.138,3.138,0,0,1,.288-2.245A1.514,1.514,0,0,1,67.6,137.6a4.449,4.449,0,0,1,1.1.162,2.379,2.379,0,0,1,1.754,2.362Zm20.3.194c.009-.864.039-1.591.093-2.22a2.354,2.354,0,0,1,1.325-1.955,2.936,2.936,0,0,1,1.011-.179,2.046,2.046,0,0,1,1.777.8,3.156,3.156,0,0,1,.318,2.376,1.3,1.3,0,0,1-.632.862c-.058.028-.112.058-.166.089a11.78,11.78,0,0,1-2.733,1l-1,.266Z" transform="translate(930.33 3645.438)" fill="#1e85c7"/>
  </g>
</svg>
